<svg width="64" height="64" viewBox="0 0 64 64" fill="none" xmlns="http://www.w3.org/2000/svg">
  <rect x="9" y="9" width="46" height="46" rx="10" fill="#17211E"/>
  <rect x="9" y="9" width="46" height="46" rx="10" stroke="#8AA59C" stroke-width="2"/>
  <path d="M20 23H37.2C42.1 23 46 26.9 46 31.8V32.2" stroke="#A6C8C0" stroke-width="3" stroke-linecap="round"/>
  <path d="M20 41H37.2C42.1 41 46 37.1 46 32.2V31.8" stroke="#A6C8C0" stroke-width="3" stroke-linecap="round"/>
  <path d="M20.6 32H45.4" stroke="#D8FFF8" stroke-width="3.4" stroke-linecap="round"/>
  <circle cx="20" cy="23" r="3.5" fill="#D9FFFA" stroke="#244942" stroke-width="1.4"/>
  <circle cx="46" cy="32" r="3.5" fill="#ACCDC5" stroke="#244942" stroke-width="1.4"/>
  <circle cx="20" cy="41" r="3.5" fill="#F8FAFC" stroke="#244942" stroke-width="1.4"/>
  <path d="M50.5 15.5L52.6 19.4L56.5 21.5L52.6 23.6L50.5 27.5L48.4 23.6L44.5 21.5L48.4 19.4L50.5 15.5Z" fill="#1F5E55" stroke="#D9FFFA" stroke-width="1.4"/>
</svg>
